<mxfile host="Electron" agent="Mozilla/5.0 (X11; Linux x86_64) AppleWebKit/537.36 (KHTML, like Gecko) draw.io/28.2.5 Chrome/138.0.7204.251 Electron/37.6.1 Safari/537.36" version="28.2.5">
  <diagram name="Página-1" id="AXWkNoGQTTntdao8Y1R_">
    <mxGraphModel dx="1186" dy="858" grid="1" gridSize="10" guides="1" tooltips="1" connect="1" arrows="1" fold="1" page="1" pageScale="1" pageWidth="1654" pageHeight="1169" math="0" shadow="0">
      <root>
        <mxCell id="0" />
        <mxCell id="1" parent="0" />
        <mxCell id="iathEXYEws56DmkSRBYK-1" value="&lt;h1 style=&quot;margin-top: 0px;&quot;&gt;Heading&lt;/h1&gt;&lt;p&gt;Lib que resgata ou armazena temporáriamente texto, em determinada linguagem como forma de padronizar a linguagem do app.&lt;/p&gt;" style="text;html=1;whiteSpace=wrap;overflow=hidden;rounded=0;" parent="1" vertex="1">
          <mxGeometry x="110" y="100" width="180" height="120" as="geometry" />
        </mxCell>
        <mxCell id="iathEXYEws56DmkSRBYK-2" value="&lt;h1 style=&quot;margin-top: 0px;&quot;&gt;Application_Language.dart&lt;/h1&gt;&lt;p&gt;Classe que recebe a biblioteca de textos, acessa seus dados em resposta da requisição ou guarda mais informações dinâmincas.&lt;br&gt;Utilizar filtro para impedir informações de banco de dados.&lt;br&gt;Pode:&lt;/p&gt;&lt;p&gt;- define o livro em uso no aplicativo;&lt;/p&gt;&lt;p&gt;&lt;br&gt;&lt;/p&gt;&lt;p&gt;&lt;br&gt;&lt;/p&gt;&lt;p&gt;&lt;br&gt;&lt;/p&gt;" style="text;html=1;whiteSpace=wrap;overflow=hidden;rounded=0;" parent="1" vertex="1">
          <mxGeometry x="240" y="280" width="320" height="200" as="geometry" />
        </mxCell>
        <mxCell id="iathEXYEws56DmkSRBYK-3" value="&lt;h1 style=&quot;margin-top: 0px;&quot;&gt;Livro.dart&lt;/h1&gt;&lt;p&gt;Classe abstrata que serve de base para o livro da linguagem , por exemplo o Pt_Br.dart.&lt;br&gt;Disponibiliza funções de gerenciamento e propriedades default, de forma que a classe filha fica responsável somente pelo Map de conteúdo da linguagem.&lt;/p&gt;&lt;p&gt;- buscar por texto ou texto temporário;&lt;/p&gt;&lt;p&gt;- inserir texto temporário;&lt;/p&gt;" style="text;html=1;whiteSpace=wrap;overflow=hidden;rounded=0;" parent="1" vertex="1">
          <mxGeometry x="880" y="240" width="280" height="220" as="geometry" />
        </mxCell>
        <mxCell id="iathEXYEws56DmkSRBYK-4" value="&lt;h1 style=&quot;margin-top: 0px;&quot;&gt;Pt_Br.dart&lt;/h1&gt;&lt;p&gt;Classe filha d Livro.dart. Responsável pelos armazenamento do Map de Conteúdos, e canal de gerênciamento do livro.&lt;/p&gt;" style="text;html=1;whiteSpace=wrap;overflow=hidden;rounded=0;" parent="1" vertex="1">
          <mxGeometry x="600" y="100" width="270" height="120" as="geometry" />
        </mxCell>
        <mxCell id="3_5NwmziRJ0OpT4MG7iL-1" value="Application_Language.dart" style="swimlane;fontStyle=1;align=center;verticalAlign=top;childLayout=stackLayout;horizontal=1;startSize=26;horizontalStack=0;resizeParent=1;resizeParentMax=0;resizeLast=0;collapsible=1;marginBottom=0;whiteSpace=wrap;html=1;" vertex="1" parent="1">
          <mxGeometry x="240" y="480" width="240" height="170" as="geometry" />
        </mxCell>
        <mxCell id="3_5NwmziRJ0OpT4MG7iL-2" value="+ field: type" style="text;strokeColor=none;fillColor=none;align=left;verticalAlign=top;spacingLeft=4;spacingRight=4;overflow=hidden;rotatable=0;points=[[0,0.5],[1,0.5]];portConstraint=eastwest;whiteSpace=wrap;html=1;" vertex="1" parent="3_5NwmziRJ0OpT4MG7iL-1">
          <mxGeometry y="26" width="240" height="26" as="geometry" />
        </mxCell>
        <mxCell id="3_5NwmziRJ0OpT4MG7iL-3" value="" style="line;strokeWidth=1;fillColor=none;align=left;verticalAlign=middle;spacingTop=-1;spacingLeft=3;spacingRight=3;rotatable=0;labelPosition=right;points=[];portConstraint=eastwest;strokeColor=inherit;" vertex="1" parent="3_5NwmziRJ0OpT4MG7iL-1">
          <mxGeometry y="52" width="240" height="8" as="geometry" />
        </mxCell>
        <mxCell id="3_5NwmziRJ0OpT4MG7iL-4" value="+ current(livro:Livro): bool" style="text;strokeColor=none;fillColor=none;align=left;verticalAlign=top;spacingLeft=4;spacingRight=4;overflow=hidden;rotatable=0;points=[[0,0.5],[1,0.5]];portConstraint=eastwest;whiteSpace=wrap;html=1;" vertex="1" parent="3_5NwmziRJ0OpT4MG7iL-1">
          <mxGeometry y="60" width="240" height="26" as="geometry" />
        </mxCell>
        <mxCell id="3_5NwmziRJ0OpT4MG7iL-19" value="+ get(index:String): String" style="text;strokeColor=none;fillColor=none;align=left;verticalAlign=top;spacingLeft=4;spacingRight=4;overflow=hidden;rotatable=0;points=[[0,0.5],[1,0.5]];portConstraint=eastwest;whiteSpace=wrap;html=1;" vertex="1" parent="3_5NwmziRJ0OpT4MG7iL-1">
          <mxGeometry y="86" width="240" height="26" as="geometry" />
        </mxCell>
        <mxCell id="3_5NwmziRJ0OpT4MG7iL-20" value="+ add(index:String, velue:String): bool" style="text;strokeColor=none;fillColor=none;align=left;verticalAlign=top;spacingLeft=4;spacingRight=4;overflow=hidden;rotatable=0;points=[[0,0.5],[1,0.5]];portConstraint=eastwest;whiteSpace=wrap;html=1;" vertex="1" parent="3_5NwmziRJ0OpT4MG7iL-1">
          <mxGeometry y="112" width="240" height="28" as="geometry" />
        </mxCell>
        <mxCell id="3_5NwmziRJ0OpT4MG7iL-35" value="+ Application_Language(livro:Livro?): bool" style="text;strokeColor=none;fillColor=none;align=left;verticalAlign=top;spacingLeft=4;spacingRight=4;overflow=hidden;rotatable=0;points=[[0,0.5],[1,0.5]];portConstraint=eastwest;whiteSpace=wrap;html=1;" vertex="1" parent="3_5NwmziRJ0OpT4MG7iL-1">
          <mxGeometry y="140" width="240" height="30" as="geometry" />
        </mxCell>
        <mxCell id="3_5NwmziRJ0OpT4MG7iL-5" value="Livro.dart" style="swimlane;fontStyle=1;align=center;verticalAlign=top;childLayout=stackLayout;horizontal=1;startSize=26;horizontalStack=0;resizeParent=1;resizeParentMax=0;resizeLast=0;collapsible=1;marginBottom=0;whiteSpace=wrap;html=1;" vertex="1" parent="1">
          <mxGeometry x="880" y="460" width="160" height="234" as="geometry" />
        </mxCell>
        <mxCell id="3_5NwmziRJ0OpT4MG7iL-6" value="+ livro: Map&amp;lt;String&amp;gt;" style="text;strokeColor=none;fillColor=none;align=left;verticalAlign=top;spacingLeft=4;spacingRight=4;overflow=hidden;rotatable=0;points=[[0,0.5],[1,0.5]];portConstraint=eastwest;whiteSpace=wrap;html=1;" vertex="1" parent="3_5NwmziRJ0OpT4MG7iL-5">
          <mxGeometry y="26" width="160" height="26" as="geometry" />
        </mxCell>
        <mxCell id="3_5NwmziRJ0OpT4MG7iL-7" value="" style="line;strokeWidth=1;fillColor=none;align=left;verticalAlign=middle;spacingTop=-1;spacingLeft=3;spacingRight=3;rotatable=0;labelPosition=right;points=[];portConstraint=eastwest;strokeColor=inherit;" vertex="1" parent="3_5NwmziRJ0OpT4MG7iL-5">
          <mxGeometry y="52" width="160" height="8" as="geometry" />
        </mxCell>
        <mxCell id="3_5NwmziRJ0OpT4MG7iL-8" value="+ get(index:String): String" style="text;strokeColor=none;fillColor=none;align=left;verticalAlign=top;spacingLeft=4;spacingRight=4;overflow=hidden;rotatable=0;points=[[0,0.5],[1,0.5]];portConstraint=eastwest;whiteSpace=wrap;html=1;" vertex="1" parent="3_5NwmziRJ0OpT4MG7iL-5">
          <mxGeometry y="60" width="160" height="26" as="geometry" />
        </mxCell>
        <mxCell id="3_5NwmziRJ0OpT4MG7iL-13" value="+ add(index:String, value:String): bool" style="text;strokeColor=none;fillColor=none;align=left;verticalAlign=top;spacingLeft=4;spacingRight=4;overflow=hidden;rotatable=0;points=[[0,0.5],[1,0.5]];portConstraint=eastwest;whiteSpace=wrap;html=1;" vertex="1" parent="3_5NwmziRJ0OpT4MG7iL-5">
          <mxGeometry y="86" width="160" height="44" as="geometry" />
        </mxCell>
        <mxCell id="3_5NwmziRJ0OpT4MG7iL-15" value="+ method(type): type" style="text;strokeColor=none;fillColor=none;align=left;verticalAlign=top;spacingLeft=4;spacingRight=4;overflow=hidden;rotatable=0;points=[[0,0.5],[1,0.5]];portConstraint=eastwest;whiteSpace=wrap;html=1;" vertex="1" parent="3_5NwmziRJ0OpT4MG7iL-5">
          <mxGeometry y="130" width="160" height="26" as="geometry" />
        </mxCell>
        <mxCell id="3_5NwmziRJ0OpT4MG7iL-16" value="+ method(type): type" style="text;strokeColor=none;fillColor=none;align=left;verticalAlign=top;spacingLeft=4;spacingRight=4;overflow=hidden;rotatable=0;points=[[0,0.5],[1,0.5]];portConstraint=eastwest;whiteSpace=wrap;html=1;" vertex="1" parent="3_5NwmziRJ0OpT4MG7iL-5">
          <mxGeometry y="156" width="160" height="26" as="geometry" />
        </mxCell>
        <mxCell id="3_5NwmziRJ0OpT4MG7iL-17" value="+ method(type): type" style="text;strokeColor=none;fillColor=none;align=left;verticalAlign=top;spacingLeft=4;spacingRight=4;overflow=hidden;rotatable=0;points=[[0,0.5],[1,0.5]];portConstraint=eastwest;whiteSpace=wrap;html=1;" vertex="1" parent="3_5NwmziRJ0OpT4MG7iL-5">
          <mxGeometry y="182" width="160" height="26" as="geometry" />
        </mxCell>
        <mxCell id="3_5NwmziRJ0OpT4MG7iL-18" value="+ method(type): type" style="text;strokeColor=none;fillColor=none;align=left;verticalAlign=top;spacingLeft=4;spacingRight=4;overflow=hidden;rotatable=0;points=[[0,0.5],[1,0.5]];portConstraint=eastwest;whiteSpace=wrap;html=1;" vertex="1" parent="3_5NwmziRJ0OpT4MG7iL-5">
          <mxGeometry y="208" width="160" height="26" as="geometry" />
        </mxCell>
        <mxCell id="3_5NwmziRJ0OpT4MG7iL-9" value="Pt_Br.dart" style="swimlane;fontStyle=1;align=center;verticalAlign=top;childLayout=stackLayout;horizontal=1;startSize=26;horizontalStack=0;resizeParent=1;resizeParentMax=0;resizeLast=0;collapsible=1;marginBottom=0;whiteSpace=wrap;html=1;" vertex="1" parent="1">
          <mxGeometry x="600" y="220" width="160" height="86" as="geometry" />
        </mxCell>
        <mxCell id="3_5NwmziRJ0OpT4MG7iL-10" value="+ livro: Map&amp;lt;String&amp;gt;" style="text;strokeColor=none;fillColor=none;align=left;verticalAlign=top;spacingLeft=4;spacingRight=4;overflow=hidden;rotatable=0;points=[[0,0.5],[1,0.5]];portConstraint=eastwest;whiteSpace=wrap;html=1;" vertex="1" parent="3_5NwmziRJ0OpT4MG7iL-9">
          <mxGeometry y="26" width="160" height="26" as="geometry" />
        </mxCell>
        <mxCell id="3_5NwmziRJ0OpT4MG7iL-11" value="" style="line;strokeWidth=1;fillColor=none;align=left;verticalAlign=middle;spacingTop=-1;spacingLeft=3;spacingRight=3;rotatable=0;labelPosition=right;points=[];portConstraint=eastwest;strokeColor=inherit;" vertex="1" parent="3_5NwmziRJ0OpT4MG7iL-9">
          <mxGeometry y="52" width="160" height="8" as="geometry" />
        </mxCell>
        <mxCell id="3_5NwmziRJ0OpT4MG7iL-21" value="+ Pt_Br(): void" style="text;strokeColor=none;fillColor=none;align=left;verticalAlign=top;spacingLeft=4;spacingRight=4;overflow=hidden;rotatable=0;points=[[0,0.5],[1,0.5]];portConstraint=eastwest;whiteSpace=wrap;html=1;" vertex="1" parent="3_5NwmziRJ0OpT4MG7iL-9">
          <mxGeometry y="60" width="160" height="26" as="geometry" />
        </mxCell>
        <mxCell id="3_5NwmziRJ0OpT4MG7iL-22" value="«interface»&lt;br&gt;&lt;b&gt;Livro_Interface.dart&lt;/b&gt;&lt;div&gt;&lt;b&gt;&lt;br&gt;&lt;/b&gt;&lt;/div&gt;" style="html=1;whiteSpace=wrap;" vertex="1" parent="1">
          <mxGeometry x="600" y="640" width="160" height="50" as="geometry" />
        </mxCell>
        <mxCell id="3_5NwmziRJ0OpT4MG7iL-23" value="Extends" style="endArrow=block;endSize=16;endFill=0;html=1;rounded=0;" edge="1" parent="1" source="3_5NwmziRJ0OpT4MG7iL-9" target="3_5NwmziRJ0OpT4MG7iL-5">
          <mxGeometry width="160" relative="1" as="geometry">
            <mxPoint x="600" y="560" as="sourcePoint" />
            <mxPoint x="760" y="560" as="targetPoint" />
          </mxGeometry>
        </mxCell>
        <mxCell id="3_5NwmziRJ0OpT4MG7iL-24" value="" style="endArrow=block;dashed=1;endFill=0;endSize=12;html=1;rounded=0;" edge="1" parent="1" source="3_5NwmziRJ0OpT4MG7iL-9" target="3_5NwmziRJ0OpT4MG7iL-22">
          <mxGeometry width="160" relative="1" as="geometry">
            <mxPoint x="600" y="560" as="sourcePoint" />
            <mxPoint x="760" y="560" as="targetPoint" />
          </mxGeometry>
        </mxCell>
        <mxCell id="3_5NwmziRJ0OpT4MG7iL-25" value="" style="endArrow=block;dashed=1;endFill=0;endSize=12;html=1;rounded=0;" edge="1" parent="1" source="3_5NwmziRJ0OpT4MG7iL-5" target="3_5NwmziRJ0OpT4MG7iL-22">
          <mxGeometry width="160" relative="1" as="geometry">
            <mxPoint x="600" y="560" as="sourcePoint" />
            <mxPoint x="760" y="560" as="targetPoint" />
          </mxGeometry>
        </mxCell>
        <mxCell id="3_5NwmziRJ0OpT4MG7iL-26" value="" style="endArrow=diamondThin;endFill=0;endSize=24;html=1;rounded=0;" edge="1" parent="1" source="3_5NwmziRJ0OpT4MG7iL-1" target="3_5NwmziRJ0OpT4MG7iL-9">
          <mxGeometry width="160" relative="1" as="geometry">
            <mxPoint x="600" y="560" as="sourcePoint" />
            <mxPoint x="760" y="560" as="targetPoint" />
          </mxGeometry>
        </mxCell>
        <mxCell id="3_5NwmziRJ0OpT4MG7iL-28" value="&lt;h1 style=&quot;margin-top: 0px;&quot;&gt;Livro_Interface.dart&lt;/h1&gt;&lt;p&gt;Estabelece uma interface para o uso do Livro, com funções e propriedades padrões.&lt;/p&gt;" style="text;html=1;whiteSpace=wrap;overflow=hidden;rounded=0;" vertex="1" parent="1">
          <mxGeometry x="600" y="728" width="230" height="120" as="geometry" />
        </mxCell>
        <mxCell id="3_5NwmziRJ0OpT4MG7iL-29" value="&lt;h1 style=&quot;margin-top: 0px;&quot;&gt;Application_Language.dart&lt;/h1&gt;&lt;p&gt;Classe que recebe a biblioteca de textos, acessa seus dados em resposta da requisição ou guarda mais informações dinâmincas.&lt;br&gt;Utilizar filtro para impedir informações de banco de dados.&lt;br&gt;Pode:&lt;/p&gt;&lt;p&gt;- define o livro em uso no aplicativo;&lt;/p&gt;&lt;p&gt;&lt;br&gt;&lt;/p&gt;&lt;p&gt;&lt;br&gt;&lt;/p&gt;&lt;p&gt;&lt;br&gt;&lt;/p&gt;" style="text;html=1;whiteSpace=wrap;overflow=hidden;rounded=0;" vertex="1" parent="1">
          <mxGeometry x="240" y="960" width="320" height="200" as="geometry" />
        </mxCell>
        <mxCell id="3_5NwmziRJ0OpT4MG7iL-30" value="«interface»&lt;br&gt;&lt;b&gt;Application_Language_Interface.dart&lt;/b&gt;" style="html=1;whiteSpace=wrap;" vertex="1" parent="1">
          <mxGeometry x="240" y="880" width="240" height="50" as="geometry" />
        </mxCell>
        <mxCell id="3_5NwmziRJ0OpT4MG7iL-31" value="" style="endArrow=block;dashed=1;endFill=0;endSize=12;html=1;rounded=0;" edge="1" parent="1" source="3_5NwmziRJ0OpT4MG7iL-1" target="3_5NwmziRJ0OpT4MG7iL-30">
          <mxGeometry width="160" relative="1" as="geometry">
            <mxPoint x="600" y="850" as="sourcePoint" />
            <mxPoint x="760" y="850" as="targetPoint" />
          </mxGeometry>
        </mxCell>
        <mxCell id="3_5NwmziRJ0OpT4MG7iL-34" value="" style="endArrow=block;dashed=1;endFill=0;endSize=12;html=1;rounded=0;" edge="1" parent="1" source="3_5NwmziRJ0OpT4MG7iL-1" target="3_5NwmziRJ0OpT4MG7iL-22">
          <mxGeometry width="160" relative="1" as="geometry">
            <mxPoint x="400" y="720" as="sourcePoint" />
            <mxPoint x="560" y="720" as="targetPoint" />
          </mxGeometry>
        </mxCell>
      </root>
    </mxGraphModel>
  </diagram>
</mxfile>
